<svg width="98" height="31" viewBox="0 0 98 31" fill="none" xmlns="http://www.w3.org/2000/svg">
<rect x="7.3434" y="2.93164" width="19.2491" height="19.2491" rx="3.84982" transform="rotate(22.4262 7.3434 2.93164)" fill="black"/>
<rect x="9.78171" y="8.79688" width="10.2662" height="10.2662" rx="5.13309" transform="rotate(22.4262 9.78171 8.79688)" fill="white"/>
<path d="M31.5093 23V11.8005H34.5206V13.7546H34.6373C34.8415 13.0595 35.1842 12.5345 35.6654 12.1797C36.1466 11.82 36.7008 11.6401 37.3278 11.6401C37.4834 11.6401 37.6511 11.6498 37.8309 11.6693C38.0108 11.6887 38.1687 11.7155 38.3048 11.7495V14.5056C38.159 14.4619 37.9573 14.423 37.6997 14.3889C37.442 14.3549 37.2063 14.3379 36.9924 14.3379C36.5355 14.3379 36.1272 14.4376 35.7675 14.6369C35.4126 14.8313 35.1307 15.1035 34.9217 15.4535C34.7175 15.8035 34.6154 16.2069 34.6154 16.6638V23H31.5093ZM44.4934 23.2187C43.3413 23.2187 42.3497 22.9854 41.5185 22.5188C40.6921 22.0473 40.0554 21.3813 39.6082 20.521C39.161 19.6557 38.9374 18.6325 38.9374 17.4513C38.9374 16.2993 39.161 15.2882 39.6082 14.4181C40.0554 13.548 40.6849 12.8699 41.4966 12.3838C42.3132 11.8977 43.2708 11.6547 44.3694 11.6547C45.1083 11.6547 45.7961 11.7738 46.4328 12.012C47.0745 12.2453 47.6335 12.5977 48.1099 13.0692C48.5911 13.5407 48.9654 14.1338 49.2327 14.8483C49.5001 15.558 49.6337 16.3892 49.6337 17.3419V18.195H40.1769V16.2701H46.7099C46.7099 15.8229 46.6127 15.4267 46.4183 15.0816C46.2238 14.7365 45.954 14.4667 45.6089 14.2723C45.2687 14.073 44.8725 13.9733 44.4204 13.9733C43.9489 13.9733 43.5309 14.0827 43.1663 14.3015C42.8066 14.5153 42.5247 14.8046 42.3205 15.1691C42.1164 15.5288 42.0119 15.9298 42.007 16.3722V18.2023C42.007 18.7564 42.1091 19.2352 42.3132 19.6387C42.5223 20.0422 42.8164 20.3532 43.1955 20.572C43.5746 20.7907 44.0243 20.9001 44.5444 20.9001C44.8895 20.9001 45.2055 20.8515 45.4923 20.7543C45.7791 20.6571 46.0245 20.5112 46.2287 20.3168C46.4328 20.1224 46.5884 19.8842 46.6953 19.6022L49.5681 19.7918C49.4223 20.4821 49.1233 21.0848 48.6713 21.6001C48.2241 22.1105 47.6456 22.5091 46.9359 22.7958C46.2311 23.0778 45.4169 23.2187 44.4934 23.2187ZM51.7191 23V8.06737H54.8252V13.6817H54.9199C55.0561 13.3803 55.2529 13.0741 55.5105 12.763C55.773 12.447 56.1133 12.1845 56.5313 11.9755C56.9542 11.7616 57.4792 11.6547 58.1063 11.6547C58.9229 11.6547 59.6763 11.8686 60.3666 12.2963C61.0568 12.7192 61.6085 13.3584 62.0217 14.214C62.4349 15.0646 62.6415 16.1316 62.6415 17.4148C62.6415 18.6641 62.4397 19.7189 62.0363 20.5793C61.6377 21.4348 61.0933 22.0837 60.403 22.5261C59.7176 22.9635 58.9496 23.1823 58.099 23.1823C57.4962 23.1823 56.9834 23.0826 56.5605 22.8833C56.1425 22.684 55.7998 22.4337 55.5324 22.1323C55.2651 21.8261 55.0609 21.5174 54.9199 21.2063H54.7814V23H51.7191ZM54.7595 17.4003C54.7595 18.0662 54.8519 18.6471 55.0366 19.1429C55.2213 19.6387 55.4887 20.0251 55.8387 20.3022C56.1886 20.5744 56.614 20.7105 57.1146 20.7105C57.6202 20.7105 58.0479 20.572 58.3979 20.2949C58.7479 20.013 59.0128 19.6241 59.1927 19.1283C59.3774 18.6276 59.4697 18.0516 59.4697 17.4003C59.4697 16.7538 59.3798 16.185 59.2 15.6941C59.0201 15.2031 58.7552 14.8191 58.4052 14.5421C58.0552 14.265 57.625 14.1265 57.1146 14.1265C56.6091 14.1265 56.1813 14.2601 55.8314 14.5275C55.4862 14.7948 55.2213 15.174 55.0366 15.6649C54.8519 16.1559 54.7595 16.7343 54.7595 17.4003ZM69.7742 23.2187C68.6416 23.2187 67.6621 22.9781 66.8358 22.4969C66.0143 22.0108 65.38 21.3351 64.9328 20.4699C64.4856 19.5998 64.262 18.5912 64.262 17.444C64.262 16.2871 64.4856 15.2761 64.9328 14.4108C65.38 13.5407 66.0143 12.8651 66.8358 12.3838C67.6621 11.8977 68.6416 11.6547 69.7742 11.6547C70.9068 11.6547 71.8838 11.8977 72.7053 12.3838C73.5317 12.8651 74.1684 13.5407 74.6156 14.4108C75.0628 15.2761 75.2864 16.2871 75.2864 17.444C75.2864 18.5912 75.0628 19.5998 74.6156 20.4699C74.1684 21.3351 73.5317 22.0108 72.7053 22.4969C71.8838 22.9781 70.9068 23.2187 69.7742 23.2187ZM69.7888 20.8126C70.304 20.8126 70.7342 20.6668 71.0793 20.3751C71.4245 20.0786 71.6845 19.6752 71.8595 19.1648C72.0394 18.6544 72.1293 18.0735 72.1293 17.4221C72.1293 16.7708 72.0394 16.1899 71.8595 15.6795C71.6845 15.1691 71.4245 14.7657 71.0793 14.4692C70.7342 14.1726 70.304 14.0244 69.7888 14.0244C69.2687 14.0244 68.8312 14.1726 68.4763 14.4692C68.1264 14.7657 67.8614 15.1691 67.6816 15.6795C67.5066 16.1899 67.4191 16.7708 67.4191 17.4221C67.4191 18.0735 67.5066 18.6544 67.6816 19.1648C67.8614 19.6752 68.1264 20.0786 68.4763 20.3751C68.8312 20.6668 69.2687 20.8126 69.7888 20.8126ZM82.3663 23.2187C81.2337 23.2187 80.2543 22.9781 79.4279 22.4969C78.6064 22.0108 77.9721 21.3351 77.5249 20.4699C77.0777 19.5998 76.8541 18.5912 76.8541 17.444C76.8541 16.2871 77.0777 15.2761 77.5249 14.4108C77.9721 13.5407 78.6064 12.8651 79.4279 12.3838C80.2543 11.8977 81.2337 11.6547 82.3663 11.6547C83.4989 11.6547 84.4759 11.8977 85.2974 12.3838C86.1238 12.8651 86.7605 13.5407 87.2077 14.4108C87.6549 15.2761 87.8785 16.2871 87.8785 17.444C87.8785 18.5912 87.6549 19.5998 87.2077 20.4699C86.7605 21.3351 86.1238 22.0108 85.2974 22.4969C84.4759 22.9781 83.4989 23.2187 82.3663 23.2187ZM82.3809 20.8126C82.8961 20.8126 83.3263 20.6668 83.6715 20.3751C84.0166 20.0786 84.2766 19.6752 84.4516 19.1648C84.6315 18.6544 84.7214 18.0735 84.7214 17.4221C84.7214 16.7708 84.6315 16.1899 84.4516 15.6795C84.2766 15.1691 84.0166 14.7657 83.6715 14.4692C83.3263 14.1726 82.8961 14.0244 82.3809 14.0244C81.8608 14.0244 81.4233 14.1726 81.0685 14.4692C80.7185 14.7657 80.4536 15.1691 80.2737 15.6795C80.0987 16.1899 80.0112 16.7708 80.0112 17.4221C80.0112 18.0735 80.0987 18.6544 80.2737 19.1648C80.4536 19.6752 80.7185 20.0786 81.0685 20.3751C81.4233 20.6668 81.8608 20.8126 82.3809 20.8126ZM95.8553 11.8005V14.1338H89.1108V11.8005H95.8553ZM90.642 9.11732H93.7481V19.5585C93.7481 19.8453 93.7918 20.0689 93.8793 20.2293C93.9668 20.3848 94.0883 20.4942 94.2439 20.5574C94.4043 20.6206 94.589 20.6522 94.798 20.6522C94.9438 20.6522 95.0897 20.64 95.2355 20.6157C95.3813 20.5866 95.4931 20.5647 95.5709 20.5501L96.0594 22.8615C95.9039 22.9101 95.6851 22.966 95.4032 23.0292C95.1213 23.0972 94.7786 23.1385 94.3751 23.1531C93.6265 23.1823 92.9703 23.0826 92.4065 22.8542C91.8475 22.6257 91.4124 22.2709 91.1013 21.7896C90.7902 21.3084 90.6371 20.7008 90.642 19.9668V9.11732Z" fill="black"/>
</svg>
